<svg width="265" height="265" viewBox="0 0 265 265" fill="none" xmlns="http://www.w3.org/2000/svg">
<rect width="265" height="265" rx="50" fill="#1C0303"/>
<path d="M134.125 173.562C134.125 169.229 134.062 164.5 133.938 159.375C133.812 154.208 133.729 150.812 133.688 149.188C133.354 138.354 133.188 130.208 133.188 124.75C133.188 116.708 133.396 109.833 133.812 104.125L125.5 102.812C124.958 100.562 124.583 98.6667 124.375 97.125C124.125 95.5833 124 93.8958 124 92.0625V90.625C124.875 89.5417 126.271 88.4167 128.188 87.25C130.146 86.0833 132.417 85.1042 135 84.3125C137.625 83.5208 140.271 83.125 142.938 83.125C147.854 83.125 151.771 84.1458 154.688 86.1875C157.604 88.2292 159.062 91.4167 159.062 95.75C159.062 104.833 158.562 120 157.562 141.25L161.438 140.375C164.062 135.667 166.979 129.479 170.188 121.812C173.438 114.146 175.562 108.208 176.562 104L168.812 102.688C168.271 100.438 167.875 98.5417 167.625 97C167.417 95.4583 167.312 93.7708 167.312 91.9375V90.5C168.146 89.4583 169.625 88.3542 171.75 87.1875C173.917 85.9792 176.396 84.9792 179.188 84.1875C181.979 83.3958 184.729 83 187.438 83C190.396 83 193.083 83.5 195.5 84.5C197.917 85.5 199.833 87.0417 201.25 89.125C202.708 91.2083 203.438 93.7708 203.438 96.8125C203.438 102.062 201.208 108.375 196.75 115.75C192.333 123.125 187.021 130.521 180.812 137.938C182.854 142.188 185.042 146.188 187.375 149.938C189.708 153.688 191.771 156.521 193.562 158.438C194.479 157.979 195.333 157.375 196.125 156.625C196.958 155.875 198.021 154.792 199.312 153.375L200.688 151.938L208.375 157.75V159.125C208.375 165.75 206.708 171.083 203.375 175.125C200.083 179.167 195.083 181.188 188.375 181.188C185.875 181.188 183.5 180.833 181.25 180.125C178.125 179.167 175.417 177.271 173.125 174.438C170.875 171.604 169.083 168.333 167.75 164.625C166.458 160.875 165.562 157.021 165.062 153.062C162.979 153.562 160.25 153.917 156.875 154.125C156.5 161.25 156.021 169.396 155.438 178.562C152.062 180.396 148.312 181.312 144.188 181.312C140.604 181.312 137.229 180.667 134.062 179.375L134.125 173.562Z" fill="#FFFEFE"/>
<path d="M43 132.75C43 99.6667 56 83.125 82 83.125C92.2917 83.125 100.312 85.2708 106.062 89.5625C111.854 93.8125 115.833 99.5625 118 106.812C120.208 114.021 121.312 122.667 121.312 132.75C121.312 147.583 118.271 159.375 112.188 168.125C106.104 176.875 96.0417 181.25 82 181.25C67.875 181.25 57.8333 176.917 51.875 168.25C45.9583 159.583 43 147.75 43 132.75ZM85.125 161.312C88.5417 161.312 90.5 161.125 91 160.75C92.0417 158.917 92.8333 155.729 93.375 151.188C93.9167 146.604 94.1875 141.479 94.1875 135.812C94.1875 129.854 93.8958 124.333 93.3125 119.25C92.7708 114.125 92 110.542 91 108.5C89.9583 107.667 88.4167 107.042 86.375 106.625C84.3333 106.208 82.0833 105.979 79.625 105.938C78.2083 105.938 76.9167 106.021 75.75 106.188C74.625 106.312 73.8125 106.521 73.3125 106.812C72.1042 108.896 71.2083 111.917 70.625 115.875C70.0833 119.792 69.8125 124.271 69.8125 129.312C69.8125 135.021 70.125 140.708 70.75 146.375C71.375 152.042 72.1458 156.375 73.0625 159.375C73.6458 160 75.125 160.479 77.5 160.812C79.875 161.146 82.4167 161.312 85.125 161.312Z" fill="#FFFEFE"/>
<circle cx="82.5" cy="132.5" r="31" fill="#FFFAFA" stroke="#FFFEFE"/>
<path d="M52.5372 188C50.8348 187.338 49.8134 186.081 49.4729 184.229C49.2005 182.442 48.0429 180.987 46 179.862C46.5448 176.488 47.1576 173.08 47.8386 169.64C48.5195 166.199 49.3707 162.296 50.3922 157.929C51.4817 153.496 52.8096 148.369 54.3758 142.546C56.0101 136.658 58.0529 129.545 60.5044 121.209C58.2572 121.209 56.4867 121.242 55.1929 121.308C53.8991 121.374 52.6393 121.507 51.4136 121.705C51.1412 121.44 50.9029 121.077 50.6986 120.613C50.5624 120.15 50.4943 119.72 50.4943 119.323C51.1753 119.059 52.5712 118.728 54.6822 118.331C56.7932 117.868 59.1084 117.471 61.628 117.14C63.2623 112.112 65.1349 107.612 67.2459 103.643C69.3568 99.6068 71.638 96.1664 74.0895 93.3214C76.5409 90.4764 79.1285 88.293 81.8524 86.7713C84.5762 85.2495 87.3341 84.4887 90.126 84.4887C90.9431 84.4887 91.7262 84.5548 92.4753 84.6871C93.2244 84.7533 93.8032 84.7864 94.2117 84.7864C94.8246 84.3233 95.6417 83.9263 96.6632 83.5955C97.6846 83.1985 98.5699 83 99.3189 83C100.136 83 101.192 83.4301 102.485 84.2902C101.941 85.2164 101.362 86.4735 100.749 88.0614C100.136 89.6493 99.6253 91.2042 99.2168 92.7259C97.5144 97.6219 95.7098 100.798 93.8032 102.253C93.0541 102.253 92.6455 101.294 92.5774 99.3752C92.5093 97.9858 92.3051 96.6295 91.9646 95.3062C91.6922 94.7108 91.4879 94.1815 91.3517 93.7183C91.2836 93.2552 91.2496 92.6597 91.2496 91.9319C91.2496 91.535 91.2836 91.0718 91.3517 90.5425C91.4198 89.9471 91.556 88.9877 91.7603 87.6645C90.6027 87.6645 89.3089 88.3592 87.8788 89.7486C86.5169 91.138 85.0529 93.1229 83.4867 95.7032C81.9886 98.2174 80.4564 101.228 78.8902 104.734C77.324 108.241 75.8259 112.112 74.3959 116.346L82.976 116.048C83.3164 116.379 83.5888 117.14 83.7931 118.331C84.0655 119.456 84.2357 120.647 84.3038 121.904L73.068 121.308C70.4804 128.785 68.063 135.93 65.8158 142.745C63.5687 149.56 61.5599 155.845 59.7894 161.601C58.0189 167.357 56.4867 172.485 55.1929 176.984C53.9672 181.549 53.082 185.221 52.5372 188Z" fill="black"/>
<path d="M118 118.232C117.728 122.334 116.979 125.873 115.753 128.851C114.527 131.762 112.757 134.342 110.441 136.592C108.194 138.775 105.436 140.76 102.168 142.546C98.8992 144.333 95.0858 146.053 90.7277 147.707C90.7277 148.104 90.6936 148.534 90.6255 148.997C90.6255 149.394 90.6255 149.824 90.6255 150.287C90.6255 151.147 90.6936 152.041 90.8298 152.967C90.966 153.893 91.2044 154.753 91.5448 155.547C91.8853 156.341 92.362 157.003 92.9748 157.532C93.5877 157.995 94.3708 158.227 95.3241 158.227C97.1627 158.227 98.9673 157.83 100.738 157.036C102.508 156.242 104.177 155.283 105.743 154.158C107.377 152.967 108.875 151.71 110.237 150.387C111.667 148.997 112.927 147.74 114.016 146.615C114.697 147.211 115.276 147.773 115.753 148.302C112.689 152.272 109.318 155.58 105.641 158.227C102.032 160.807 98.5927 162.461 95.3241 163.189C90.6255 162.66 86.9484 161.006 84.2926 158.227C81.705 155.382 80.4112 151.974 80.4112 148.005C80.4112 145.292 80.7857 142.546 81.5348 139.767C82.3519 136.922 83.4414 134.21 84.8034 131.629C86.2334 128.983 87.8677 126.502 89.7063 124.186C91.6129 121.871 93.6218 119.853 95.7327 118.132C97.9118 116.412 100.125 115.056 102.372 114.063C104.687 113.071 106.969 112.575 109.216 112.575C112.348 112.972 115.276 114.857 118 118.232ZM110.952 121.507C109.114 121.771 107.207 122.499 105.232 123.69C103.257 124.881 101.385 126.469 99.6142 128.454C97.9118 130.439 96.3456 132.754 94.9156 135.401C93.4856 138.047 92.362 140.892 91.5448 143.936C96.9925 141.289 101.521 138.047 105.13 134.21C108.739 130.306 110.68 126.072 110.952 121.507Z" fill="black"/>
</svg>
